<svg width="16" height="16" viewBox="0 0 16 16" fill="none" xmlns="http://www.w3.org/2000/svg">
<path fill-rule="evenodd" clip-rule="evenodd" d="M2.13333 3.20001H7.3112C7.23941 3.36433 7.2 3.54505 7.2 3.73335C7.2 3.92164 7.23941 4.10236 7.3112 4.26668H2.13333C1.54423 4.26668 1.06667 4.74425 1.06667 5.33335V9.87247C3.414 9.27868 5.78192 9.91108 7.49765 11.376C8.63117 10.6507 9.96749 10.4705 11.2 10.7748V8.15548C11.3643 8.22727 11.545 8.26668 11.7333 8.26668C11.9216 8.26668 12.1023 8.22727 12.2667 8.15548V11.5013C12.2669 11.5094 12.2669 11.5174 12.2667 11.5255V13.8667C12.2667 15.0449 11.3115 16 10.1333 16H2.13333C0.955125 16 0 15.0449 0 13.8667V5.33335C0 4.15513 0.955125 3.20001 2.13333 3.20001Z" fill="white" fill-opacity="0.24"/>
<path fill-rule="evenodd" clip-rule="evenodd" d="M11.7333 0C11.9823 0 12.1982 0.172285 12.2534 0.415077L12.5485 1.71278C12.685 2.31301 13.1537 2.78171 13.7539 2.91819L15.0516 3.21328C15.2944 3.26848 15.4667 3.48435 15.4667 3.73333C15.4667 3.98232 15.2944 4.19819 15.0516 4.25339L13.7539 4.54848C13.1537 4.68496 12.685 5.15365 12.5485 5.75389L12.2534 7.0516C12.1982 7.29437 11.9823 7.46667 11.7333 7.46667C11.4843 7.46667 11.2685 7.29437 11.2133 7.0516L10.9182 5.75389C10.7817 5.15365 10.313 4.68496 9.71277 4.54848L8.41507 4.25339C8.17229 4.19819 8 3.98232 8 3.73333C8 3.48435 8.17229 3.26848 8.41507 3.21328L9.71277 2.91819C10.313 2.78171 10.7817 2.31301 10.9182 1.71278L11.2133 0.415077C11.2685 0.172285 11.4843 0 11.7333 0Z" fill="white"/>
<path fill-rule="evenodd" clip-rule="evenodd" d="M11.7333 0C11.9823 0 12.1982 0.172285 12.2534 0.415077L12.5485 1.71278C12.685 2.31301 13.1537 2.78171 13.7539 2.91819L15.0516 3.21328C15.2944 3.26848 15.4667 3.48435 15.4667 3.73333C15.4667 3.98232 15.2944 4.19819 15.0516 4.25339L13.7539 4.54848C13.1537 4.68496 12.685 5.15365 12.5485 5.75389L12.2534 7.0516C12.1982 7.29437 11.9823 7.46667 11.7333 7.46667C11.4843 7.46667 11.2685 7.29437 11.2133 7.0516L10.9182 5.75389C10.7817 5.15365 10.313 4.68496 9.71277 4.54848L8.41507 4.25339C8.17229 4.19819 8 3.98232 8 3.73333C8 3.48435 8.17229 3.26848 8.41507 3.21328L9.71277 2.91819C10.313 2.78171 10.7817 2.31301 10.9182 1.71278L11.2133 0.415077C11.2685 0.172285 11.4843 0 11.7333 0Z" fill="white"/>
<path fill-rule="evenodd" clip-rule="evenodd" d="M8.66662 5.33334C7.86368 5.33334 7.19995 5.98289 7.19995 6.80001C7.19995 7.61713 7.86368 8.26668 8.66662 8.26668C9.46958 8.26668 10.1333 7.61713 10.1333 6.80001C10.1333 5.98289 9.46958 5.33334 8.66662 5.33334Z" fill="white"/>
<path fill-rule="evenodd" clip-rule="evenodd" d="M2.13333 3.20001H7.3112C7.23941 3.36433 7.2 3.54505 7.2 3.73335C7.2 3.92164 7.23941 4.10236 7.3112 4.26668H2.13333C1.54423 4.26668 1.06667 4.74425 1.06667 5.33335V9.87247C3.414 9.27868 5.78192 9.91108 7.49765 11.376C8.63117 10.6507 9.96749 10.4705 11.2 10.7748V8.15548C11.3643 8.22727 11.545 8.26668 11.7333 8.26668C11.9216 8.26668 12.1023 8.22727 12.2667 8.15548V11.5013C12.2669 11.5094 12.2669 11.5174 12.2667 11.5255V13.8667C12.2667 15.0449 11.3115 16 10.1333 16H2.13333C0.955125 16 0 15.0449 0 13.8667V5.33335C0 4.15513 0.955125 3.20001 2.13333 3.20001Z" fill="white"/>
<mask id="mask0_4274_539" style="mask-type:alpha" maskUnits="userSpaceOnUse" x="8" y="0" width="8" height="8">
<path fill-rule="evenodd" clip-rule="evenodd" d="M11.7333 0C11.9823 0 12.1982 0.172285 12.2534 0.415077L12.5485 1.71278C12.685 2.31301 13.1537 2.78171 13.7539 2.91819L15.0516 3.21328C15.2944 3.26848 15.4667 3.48435 15.4667 3.73333C15.4667 3.98232 15.2944 4.19819 15.0516 4.25339L13.7539 4.54848C13.1537 4.68496 12.685 5.15365 12.5485 5.75389L12.2534 7.0516C12.1982 7.29437 11.9823 7.46667 11.7333 7.46667C11.4843 7.46667 11.2685 7.29437 11.2133 7.0516L10.9182 5.75389C10.7817 5.15365 10.313 4.68496 9.71277 4.54848L8.41507 4.25339C8.17229 4.19819 8 3.98232 8 3.73333C8 3.48435 8.17229 3.26848 8.41507 3.21328L9.71277 2.91819C10.313 2.78171 10.7817 2.31301 10.9182 1.71278L11.2133 0.415077C11.2685 0.172285 11.4843 0 11.7333 0Z" fill="#FAC100"/>
</mask>
<g mask="url(#mask0_4274_539)">
<path d="M13.4221 5.15554C12.6179 5.15491 11.8364 4.88813 11.1997 4.39681C10.5629 3.90549 10.1067 3.21726 9.90212 2.43945L8.95545 2.64443C8.90249 2.65589 8.85347 2.68104 8.81328 2.71737C8.77308 2.7537 8.74312 2.79994 8.72639 2.85147C8.70965 2.903 8.2554 2.88032 8.26659 2.93333C8.27777 2.98635 6.94305 2.89788 7.86659 3.2L7.33325 4.13333L9.74887 6.10434C9.74339 6.15824 9.75215 6.21264 9.77427 6.2621C9.79639 6.31155 9.8311 6.35434 9.87493 6.38619C9.91876 6.41804 9.97018 6.43783 10.0241 6.44359C10.0779 6.44935 10.1324 6.44087 10.1819 6.41901L11.7333 8L13.2845 6.41901C13.3341 6.44087 13.3885 6.44935 13.4424 6.44359C13.4963 6.43783 13.5477 6.41804 13.5915 6.38619C13.6354 6.35434 13.6701 6.31155 13.6922 6.2621C13.7143 6.21264 13.7231 6.15824 13.7176 6.10434L13.6205 5.14559C13.5544 5.14914 13.4891 5.15554 13.4221 5.15554Z" fill="white"/>
</g>
</svg>
